<mxfile host="Electron" modified="2024-01-22T09:38:40.701Z" agent="Mozilla/5.0 (X11; Linux x86_64) AppleWebKit/537.36 (KHTML, like Gecko) draw.io/21.6.1 Chrome/112.0.5615.204 Electron/24.6.1 Safari/537.36" etag="5VxCNKyISWRmEuyV-QfL" version="21.6.1" type="device">
  <diagram name="Page-1" id="NQa1cD9yoGFF-2M4kGZS">
    <mxGraphModel dx="3439" dy="2564" grid="1" gridSize="10" guides="1" tooltips="1" connect="1" arrows="1" fold="1" page="1" pageScale="1" pageWidth="850" pageHeight="1100" math="0" shadow="0">
      <root>
        <mxCell id="0" />
        <mxCell id="1" parent="0" />
        <mxCell id="DQ1VLmd9Tk6c67iTof-k-62" value="&lt;pre style=&quot;border-color: var(--border-color); color: rgb(8, 8, 8); font-style: normal; font-variant-ligatures: normal; font-variant-caps: normal; font-weight: 700; letter-spacing: normal; orphans: 2; text-indent: 0px; text-transform: none; widows: 2; word-spacing: 0px; -webkit-text-stroke-width: 0px; background-color: rgb(255, 255, 255); text-decoration-thickness: initial; text-decoration-style: initial; text-decoration-color: initial; font-family: &amp;quot;JetBrains Mono&amp;quot;, monospace;&quot;&gt;&lt;div style=&quot;&quot;&gt;&lt;pre style=&quot;font-family: &amp;quot;JetBrains Mono&amp;quot;, monospace;&quot;&gt;&lt;font style=&quot;font-size: 12px;&quot;&gt;self.Decoder = &lt;br&gt;CompGenComponents.Encoder&lt;/font&gt;&lt;/pre&gt;&lt;/div&gt;&lt;/pre&gt;" style="rounded=0;whiteSpace=wrap;html=1;container=0;align=right;" parent="1" vertex="1">
          <mxGeometry x="200" y="180" width="610" height="70" as="geometry" />
        </mxCell>
        <mxCell id="DQ1VLmd9Tk6c67iTof-k-55" value="" style="group" parent="1" vertex="1" connectable="0">
          <mxGeometry x="200" y="260" width="610" height="150" as="geometry" />
        </mxCell>
        <mxCell id="DQ1VLmd9Tk6c67iTof-k-52" value="&lt;pre style=&quot;border-color: var(--border-color); color: rgb(8, 8, 8); font-size: 22px; font-weight: 700; background-color: rgb(255, 255, 255); font-family: &amp;quot;JetBrains Mono&amp;quot;, monospace;&quot;&gt;&lt;div style=&quot;&quot;&gt;&lt;span style=&quot;font-size: 12px; white-space: normal;&quot;&gt;self.DecoderInput =&amp;nbsp;&lt;/span&gt;&lt;/div&gt;&lt;font style=&quot;border-color: var(--border-color); font-size: 12px;&quot;&gt;CompGenComponents.CompGenDecoderInput&lt;br/&gt;&lt;br/&gt;&lt;br/&gt;&lt;br/&gt;&lt;/font&gt;&lt;/pre&gt;" style="rounded=0;whiteSpace=wrap;html=1;container=0;align=right;" parent="DQ1VLmd9Tk6c67iTof-k-55" vertex="1">
          <mxGeometry width="598.4303466317854" height="150" as="geometry" />
        </mxCell>
        <mxCell id="DQ1VLmd9Tk6c67iTof-k-64" value="&lt;pre style=&quot;border-color: var(--border-color); color: rgb(8, 8, 8); font-style: normal; font-variant-ligatures: normal; font-variant-caps: normal; font-weight: 700; letter-spacing: normal; orphans: 2; text-indent: 0px; text-transform: none; widows: 2; word-spacing: 0px; -webkit-text-stroke-width: 0px; background-color: rgb(255, 255, 255); text-decoration-thickness: initial; text-decoration-style: initial; text-decoration-color: initial; font-family: &amp;quot;JetBrains Mono&amp;quot;, monospace;&quot;&gt;&lt;div style=&quot;&quot;&gt;&lt;pre style=&quot;font-family: &amp;quot;JetBrains Mono&amp;quot;, monospace;&quot;&gt;&lt;div&gt;&lt;pre style=&quot;font-family: &amp;quot;JetBrains Mono&amp;quot;, monospace;&quot;&gt;self.OutputLayer = &lt;/pre&gt;&lt;pre style=&quot;font-family: &amp;quot;JetBrains Mono&amp;quot;, monospace;&quot;&gt;CompGenComponents.OutputLayer&lt;/pre&gt;&lt;/div&gt;&lt;/pre&gt;&lt;/div&gt;&lt;/pre&gt;" style="rounded=0;whiteSpace=wrap;html=1;container=0;align=right;" parent="DQ1VLmd9Tk6c67iTof-k-55" vertex="1">
          <mxGeometry y="-230" width="610" height="140" as="geometry" />
        </mxCell>
        <mxCell id="DQ1VLmd9Tk6c67iTof-k-49" value="" style="group" parent="1" vertex="1" connectable="0">
          <mxGeometry x="294.2" y="560" width="305.8" height="230" as="geometry" />
        </mxCell>
        <mxCell id="DQ1VLmd9Tk6c67iTof-k-47" value="" style="group" parent="DQ1VLmd9Tk6c67iTof-k-49" vertex="1" connectable="0">
          <mxGeometry y="-52.27272727272727" width="279.99999999999994" height="250.9090909090909" as="geometry" />
        </mxCell>
        <mxCell id="DQ1VLmd9Tk6c67iTof-k-44" value="&lt;pre style=&quot;border-color: var(--border-color); color: rgb(8, 8, 8); font-size: 22px; font-weight: 700; background-color: rgb(255, 255, 255); font-family: &amp;quot;JetBrains Mono&amp;quot;, monospace;&quot;&gt;&lt;font style=&quot;border-color: var(--border-color); font-size: 12px;&quot;&gt;&lt;br&gt;&lt;/font&gt;&lt;/pre&gt;&lt;pre style=&quot;border-color: var(--border-color); color: rgb(8, 8, 8); font-size: 22px; font-weight: 700; background-color: rgb(255, 255, 255); font-family: &amp;quot;JetBrains Mono&amp;quot;, monospace;&quot;&gt;&lt;font style=&quot;border-color: var(--border-color); font-size: 12px;&quot;&gt;&lt;br&gt;&lt;/font&gt;&lt;/pre&gt;&lt;pre style=&quot;border-color: var(--border-color); color: rgb(8, 8, 8); font-size: 22px; font-weight: 700; background-color: rgb(255, 255, 255); font-family: &amp;quot;JetBrains Mono&amp;quot;, monospace;&quot;&gt;&lt;font style=&quot;border-color: var(--border-color); font-size: 12px;&quot;&gt;&lt;br&gt;&lt;/font&gt;&lt;/pre&gt;&lt;pre style=&quot;border-color: var(--border-color); color: rgb(8, 8, 8); font-size: 22px; font-weight: 700; background-color: rgb(255, 255, 255); font-family: &amp;quot;JetBrains Mono&amp;quot;, monospace;&quot;&gt;&lt;font style=&quot;border-color: var(--border-color); font-size: 12px;&quot;&gt;&lt;br&gt;&lt;/font&gt;&lt;/pre&gt;&lt;pre style=&quot;border-color: var(--border-color); color: rgb(8, 8, 8); font-size: 22px; font-weight: 700; background-color: rgb(255, 255, 255); font-family: &amp;quot;JetBrains Mono&amp;quot;, monospace;&quot;&gt;&lt;font style=&quot;border-color: var(--border-color); font-size: 12px;&quot;&gt;self.LatentEncoder = &lt;br style=&quot;border-color: var(--border-color);&quot;&gt;CompGenComponents.LatentLayer&lt;/font&gt;&lt;/pre&gt;" style="rounded=0;whiteSpace=wrap;html=1;container=0;align=left;" parent="DQ1VLmd9Tk6c67iTof-k-47" vertex="1">
          <mxGeometry width="274.68933943754075" height="250.9090909090909" as="geometry" />
        </mxCell>
        <mxCell id="DQ1VLmd9Tk6c67iTof-k-36" value="" style="group" parent="1" vertex="1" connectable="0">
          <mxGeometry x="-73" y="437.5" width="360" height="105" as="geometry" />
        </mxCell>
        <mxCell id="DQ1VLmd9Tk6c67iTof-k-37" value="&lt;pre style=&quot;border-color: var(--border-color); color: rgb(8, 8, 8); font-weight: 700; background-color: rgb(255, 255, 255); font-family: &amp;quot;JetBrains Mono&amp;quot;, monospace;&quot;&gt;&lt;br&gt;&lt;/pre&gt;&lt;pre style=&quot;border-color: var(--border-color); color: rgb(8, 8, 8); font-weight: 700; background-color: rgb(255, 255, 255); font-family: &amp;quot;JetBrains Mono&amp;quot;, monospace;&quot;&gt;&lt;br&gt;&lt;/pre&gt;&lt;pre style=&quot;border-color: var(--border-color); color: rgb(8, 8, 8); font-weight: 700; background-color: rgb(255, 255, 255); font-family: &amp;quot;JetBrains Mono&amp;quot;, monospace;&quot;&gt;self.ComplexityLayer = &lt;/pre&gt;&lt;pre style=&quot;border-color: var(--border-color); color: rgb(8, 8, 8); font-weight: 700; background-color: rgb(255, 255, 255); font-family: &amp;quot;JetBrains Mono&amp;quot;, monospace;&quot;&gt;CompGenComponents.ComplexityLayer&lt;/pre&gt;" style="rounded=0;whiteSpace=wrap;html=1;align=left;" parent="DQ1VLmd9Tk6c67iTof-k-36" vertex="1">
          <mxGeometry x="50" width="310" height="105" as="geometry" />
        </mxCell>
        <mxCell id="DQ1VLmd9Tk6c67iTof-k-35" value="" style="group" parent="1" vertex="1" connectable="0">
          <mxGeometry x="690" y="437.5" width="390" height="232.5" as="geometry" />
        </mxCell>
        <mxCell id="DQ1VLmd9Tk6c67iTof-k-33" value="&lt;pre style=&quot;border-color: var(--border-color); color: rgb(8, 8, 8); font-weight: 700; background-color: rgb(255, 255, 255); font-family: &amp;quot;JetBrains Mono&amp;quot;, monospace;&quot;&gt;&lt;div style=&quot;&quot;&gt;&lt;span style=&quot;white-space: normal;&quot;&gt;&lt;br&gt;&lt;/span&gt;&lt;/div&gt;&lt;div style=&quot;&quot;&gt;&lt;span style=&quot;white-space: normal;&quot;&gt;&lt;br&gt;&lt;/span&gt;&lt;/div&gt;&lt;div style=&quot;&quot;&gt;&lt;span style=&quot;white-space: normal;&quot;&gt;&lt;br&gt;&lt;/span&gt;&lt;/div&gt;&lt;div style=&quot;&quot;&gt;&lt;span style=&quot;white-space: normal;&quot;&gt;&lt;br&gt;&lt;/span&gt;&lt;/div&gt;&lt;div style=&quot;&quot;&gt;&lt;span style=&quot;white-space: normal;&quot;&gt;self.GenreLayer =&amp;nbsp;&lt;/span&gt;&lt;/div&gt;&lt;br style=&quot;border-color: var(--border-color);&quot;&gt;CompGenComponents.GenreLayer&lt;/pre&gt;" style="rounded=0;whiteSpace=wrap;html=1;align=right;" parent="DQ1VLmd9Tk6c67iTof-k-35" vertex="1">
          <mxGeometry width="300" height="232.5" as="geometry" />
        </mxCell>
        <mxCell id="DQ1VLmd9Tk6c67iTof-k-18" value="" style="group" parent="1" vertex="1" connectable="0">
          <mxGeometry x="210" y="772.5" width="890" height="105" as="geometry" />
        </mxCell>
        <mxCell id="DQ1VLmd9Tk6c67iTof-k-27" value="" style="group" parent="DQ1VLmd9Tk6c67iTof-k-18" vertex="1" connectable="0">
          <mxGeometry width="620" height="105" as="geometry" />
        </mxCell>
        <mxCell id="DQ1VLmd9Tk6c67iTof-k-19" value="&lt;pre style=&quot;border-color: var(--border-color); font-weight: 700;&quot;&gt;&lt;font style=&quot;border-color: var(--border-color);&quot; face=&quot;Helvetica&quot;&gt;self.Encoder = &lt;br style=&quot;border-color: var(--border-color);&quot;&gt;&lt;br style=&quot;border-color: var(--border-color);&quot;&gt;&lt;/font&gt;&lt;/pre&gt;&lt;pre style=&quot;border-color: var(--border-color); font-weight: 700;&quot;&gt;&lt;font style=&quot;border-color: var(--border-color);&quot; face=&quot;Helvetica&quot;&gt;CompGenComponents.Encoder&lt;/font&gt;&lt;/pre&gt;" style="rounded=0;whiteSpace=wrap;html=1;align=right;" parent="DQ1VLmd9Tk6c67iTof-k-27" vertex="1">
          <mxGeometry width="620" height="105" as="geometry" />
        </mxCell>
        <mxCell id="DQ1VLmd9Tk6c67iTof-k-8" value="" style="group" parent="1" vertex="1" connectable="0">
          <mxGeometry x="180" y="900" width="650" height="400" as="geometry" />
        </mxCell>
        <mxCell id="DQ1VLmd9Tk6c67iTof-k-9" value="&lt;pre style=&quot;border-color: var(--border-color); font-size: 24px; font-weight: 700;&quot;&gt;&lt;font style=&quot;border-color: var(--border-color); font-size: 12px;&quot; face=&quot;Helvetica&quot;&gt;self.InputLayerEncoder = &lt;br style=&quot;border-color: var(--border-color);&quot;&gt;CompGenComponents.InputGrooveLayerWithTempo&lt;/font&gt;&lt;/pre&gt;&lt;pre style=&quot;border-color: var(--border-color); font-size: 24px; font-weight: 700;&quot;&gt;&lt;font style=&quot;border-color: var(--border-color); font-size: 12px;&quot; face=&quot;Helvetica&quot;&gt;&lt;br&gt;&lt;/font&gt;&lt;/pre&gt;&lt;pre style=&quot;border-color: var(--border-color); font-size: 24px; font-weight: 700;&quot;&gt;&lt;font style=&quot;border-color: var(--border-color); font-size: 12px;&quot; face=&quot;Helvetica&quot;&gt;&lt;br&gt;&lt;/font&gt;&lt;/pre&gt;&lt;pre style=&quot;border-color: var(--border-color); font-size: 24px; font-weight: 700;&quot;&gt;&lt;font style=&quot;border-color: var(--border-color); font-size: 12px;&quot; face=&quot;Helvetica&quot;&gt;&lt;br&gt;&lt;/font&gt;&lt;/pre&gt;" style="rounded=0;whiteSpace=wrap;html=1;align=right;" parent="DQ1VLmd9Tk6c67iTof-k-8" vertex="1">
          <mxGeometry width="650" height="400" as="geometry" />
        </mxCell>
        <mxCell id="9zeXcT7h1Ww5CdjPzbvc-38" style="edgeStyle=orthogonalEdgeStyle;rounded=0;orthogonalLoop=1;jettySize=auto;html=1;exitX=0.5;exitY=0;exitDx=0;exitDy=0;entryX=0.5;entryY=1;entryDx=0;entryDy=0;" parent="1" source="9zeXcT7h1Ww5CdjPzbvc-1" target="9zeXcT7h1Ww5CdjPzbvc-37" edge="1">
          <mxGeometry relative="1" as="geometry" />
        </mxCell>
        <mxCell id="9zeXcT7h1Ww5CdjPzbvc-1" value="Encoder" style="shape=trapezoid;perimeter=trapezoidPerimeter;whiteSpace=wrap;html=1;fixedSize=1;" parent="1" vertex="1">
          <mxGeometry x="320" y="800" width="220" height="50" as="geometry" />
        </mxCell>
        <mxCell id="9zeXcT7h1Ww5CdjPzbvc-16" value="" style="group" parent="1" vertex="1" connectable="0">
          <mxGeometry x="369" y="1170" width="120" height="60" as="geometry" />
        </mxCell>
        <mxCell id="9zeXcT7h1Ww5CdjPzbvc-3" value="V (N, 32, 1)" style="rounded=0;whiteSpace=wrap;html=1;fillColor=#dae8fc;strokeColor=#6c8ebf;" parent="9zeXcT7h1Ww5CdjPzbvc-16" vertex="1">
          <mxGeometry y="40" width="120" height="20" as="geometry" />
        </mxCell>
        <mxCell id="9zeXcT7h1Ww5CdjPzbvc-7" style="edgeStyle=orthogonalEdgeStyle;rounded=0;orthogonalLoop=1;jettySize=auto;html=1;exitX=0.5;exitY=1;exitDx=0;exitDy=0;" parent="9zeXcT7h1Ww5CdjPzbvc-16" source="9zeXcT7h1Ww5CdjPzbvc-3" target="9zeXcT7h1Ww5CdjPzbvc-3" edge="1">
          <mxGeometry relative="1" as="geometry" />
        </mxCell>
        <mxCell id="9zeXcT7h1Ww5CdjPzbvc-26" style="edgeStyle=orthogonalEdgeStyle;rounded=0;orthogonalLoop=1;jettySize=auto;html=1;exitX=0.5;exitY=0;exitDx=0;exitDy=0;" parent="9zeXcT7h1Ww5CdjPzbvc-16" source="9zeXcT7h1Ww5CdjPzbvc-8" edge="1">
          <mxGeometry relative="1" as="geometry">
            <mxPoint x="59.6521739130435" y="-50" as="targetPoint" />
          </mxGeometry>
        </mxCell>
        <mxCell id="9zeXcT7h1Ww5CdjPzbvc-8" value="Dropout" style="rounded=1;whiteSpace=wrap;html=1;" parent="9zeXcT7h1Ww5CdjPzbvc-16" vertex="1">
          <mxGeometry x="25" width="70" height="20" as="geometry" />
        </mxCell>
        <mxCell id="9zeXcT7h1Ww5CdjPzbvc-13" value="" style="endArrow=classic;html=1;rounded=0;entryX=0.5;entryY=1;entryDx=0;entryDy=0;" parent="9zeXcT7h1Ww5CdjPzbvc-16" edge="1">
          <mxGeometry width="50" height="50" relative="1" as="geometry">
            <mxPoint x="61" y="40" as="sourcePoint" />
            <mxPoint x="61" y="20" as="targetPoint" />
          </mxGeometry>
        </mxCell>
        <mxCell id="9zeXcT7h1Ww5CdjPzbvc-17" value="" style="group" parent="1" vertex="1" connectable="0">
          <mxGeometry x="525" y="1170" width="120" height="60" as="geometry" />
        </mxCell>
        <mxCell id="9zeXcT7h1Ww5CdjPzbvc-4" value="O (N, 32, 1)" style="rounded=0;whiteSpace=wrap;html=1;fillColor=#f5f5f5;fontColor=#333333;strokeColor=#666666;" parent="9zeXcT7h1Ww5CdjPzbvc-17" vertex="1">
          <mxGeometry y="40" width="120" height="20" as="geometry" />
        </mxCell>
        <mxCell id="9zeXcT7h1Ww5CdjPzbvc-27" style="edgeStyle=orthogonalEdgeStyle;rounded=0;orthogonalLoop=1;jettySize=auto;html=1;" parent="9zeXcT7h1Ww5CdjPzbvc-17" source="9zeXcT7h1Ww5CdjPzbvc-9" edge="1">
          <mxGeometry relative="1" as="geometry">
            <mxPoint x="-95" y="-50" as="targetPoint" />
            <Array as="points">
              <mxPoint x="60" y="-20" />
              <mxPoint x="-95" y="-20" />
            </Array>
          </mxGeometry>
        </mxCell>
        <mxCell id="9zeXcT7h1Ww5CdjPzbvc-9" value="Dropout" style="rounded=1;whiteSpace=wrap;html=1;" parent="9zeXcT7h1Ww5CdjPzbvc-17" vertex="1">
          <mxGeometry x="25" width="70" height="20" as="geometry" />
        </mxCell>
        <mxCell id="9zeXcT7h1Ww5CdjPzbvc-14" value="" style="endArrow=classic;html=1;rounded=0;entryX=0.5;entryY=1;entryDx=0;entryDy=0;" parent="9zeXcT7h1Ww5CdjPzbvc-17" edge="1">
          <mxGeometry width="50" height="50" relative="1" as="geometry">
            <mxPoint x="59.85999999999996" y="40" as="sourcePoint" />
            <mxPoint x="59.85999999999996" y="20" as="targetPoint" />
          </mxGeometry>
        </mxCell>
        <mxCell id="9zeXcT7h1Ww5CdjPzbvc-32" style="edgeStyle=orthogonalEdgeStyle;rounded=0;orthogonalLoop=1;jettySize=auto;html=1;" parent="1" source="9zeXcT7h1Ww5CdjPzbvc-23" edge="1">
          <mxGeometry relative="1" as="geometry">
            <mxPoint x="429" y="1070" as="targetPoint" />
          </mxGeometry>
        </mxCell>
        <mxCell id="9zeXcT7h1Ww5CdjPzbvc-23" value="concat" style="rounded=1;whiteSpace=wrap;html=1;" parent="1" vertex="1">
          <mxGeometry x="369" y="1090" width="120" height="30" as="geometry" />
        </mxCell>
        <mxCell id="9zeXcT7h1Ww5CdjPzbvc-25" style="edgeStyle=orthogonalEdgeStyle;rounded=0;orthogonalLoop=1;jettySize=auto;html=1;entryX=0.5;entryY=1;entryDx=0;entryDy=0;exitX=0.5;exitY=0;exitDx=0;exitDy=0;" parent="1" source="9zeXcT7h1Ww5CdjPzbvc-2" target="9zeXcT7h1Ww5CdjPzbvc-23" edge="1">
          <mxGeometry relative="1" as="geometry">
            <Array as="points">
              <mxPoint x="270" y="1150" />
              <mxPoint x="429" y="1150" />
            </Array>
            <mxPoint x="270" y="1190" as="sourcePoint" />
          </mxGeometry>
        </mxCell>
        <mxCell id="9zeXcT7h1Ww5CdjPzbvc-31" value="" style="group" parent="1" vertex="1" connectable="0">
          <mxGeometry x="370" y="1010" width="120" height="60" as="geometry" />
        </mxCell>
        <mxCell id="9zeXcT7h1Ww5CdjPzbvc-75" value="" style="group" parent="9zeXcT7h1Ww5CdjPzbvc-31" vertex="1" connectable="0">
          <mxGeometry width="120" height="60" as="geometry" />
        </mxCell>
        <mxCell id="9zeXcT7h1Ww5CdjPzbvc-28" value="H (N, 32, 1)" style="rounded=0;whiteSpace=wrap;html=1;fillColor=#d5e8d4;strokeColor=#82b366;" parent="9zeXcT7h1Ww5CdjPzbvc-75" vertex="1">
          <mxGeometry y="40" width="120" height="20" as="geometry" />
        </mxCell>
        <mxCell id="9zeXcT7h1Ww5CdjPzbvc-29" value="V (N, 32, 1)" style="rounded=0;whiteSpace=wrap;html=1;fillColor=#dae8fc;strokeColor=#6c8ebf;" parent="9zeXcT7h1Ww5CdjPzbvc-75" vertex="1">
          <mxGeometry y="20" width="120" height="20" as="geometry" />
        </mxCell>
        <mxCell id="9zeXcT7h1Ww5CdjPzbvc-30" value="O (N, 32, 1)" style="rounded=0;whiteSpace=wrap;html=1;fillColor=#f5f5f5;fontColor=#333333;strokeColor=#666666;" parent="9zeXcT7h1Ww5CdjPzbvc-75" vertex="1">
          <mxGeometry width="120" height="20" as="geometry" />
        </mxCell>
        <mxCell id="DQ1VLmd9Tk6c67iTof-k-2" style="edgeStyle=orthogonalEdgeStyle;rounded=0;orthogonalLoop=1;jettySize=auto;html=1;entryX=0.5;entryY=1;entryDx=0;entryDy=0;" parent="1" source="9zeXcT7h1Ww5CdjPzbvc-33" target="9zeXcT7h1Ww5CdjPzbvc-52" edge="1">
          <mxGeometry relative="1" as="geometry">
            <Array as="points">
              <mxPoint x="430" y="950" />
              <mxPoint x="600" y="950" />
              <mxPoint x="600" y="730" />
              <mxPoint x="760" y="730" />
            </Array>
          </mxGeometry>
        </mxCell>
        <mxCell id="rTMyLlt5xqiZMyr0EFMd-11" style="edgeStyle=orthogonalEdgeStyle;shape=connector;rounded=0;orthogonalLoop=1;jettySize=auto;html=1;entryX=0.5;entryY=1;entryDx=0;entryDy=0;labelBackgroundColor=default;strokeColor=default;fontFamily=Helvetica;fontSize=11;fontColor=default;endArrow=classic;" edge="1" parent="1" source="9zeXcT7h1Ww5CdjPzbvc-33" target="DQ1VLmd9Tk6c67iTof-k-1">
          <mxGeometry relative="1" as="geometry" />
        </mxCell>
        <mxCell id="9zeXcT7h1Ww5CdjPzbvc-33" value="Input Layer (FCN)" style="rounded=1;whiteSpace=wrap;html=1;" parent="1" vertex="1">
          <mxGeometry x="370" y="960" width="120" height="30" as="geometry" />
        </mxCell>
        <mxCell id="9zeXcT7h1Ww5CdjPzbvc-35" style="edgeStyle=orthogonalEdgeStyle;rounded=0;orthogonalLoop=1;jettySize=auto;html=1;entryX=0.5;entryY=1;entryDx=0;entryDy=0;" parent="1" source="9zeXcT7h1Ww5CdjPzbvc-30" target="9zeXcT7h1Ww5CdjPzbvc-33" edge="1">
          <mxGeometry relative="1" as="geometry">
            <Array as="points">
              <mxPoint x="430" y="1000" />
              <mxPoint x="430" y="1000" />
            </Array>
          </mxGeometry>
        </mxCell>
        <mxCell id="9zeXcT7h1Ww5CdjPzbvc-42" style="edgeStyle=orthogonalEdgeStyle;rounded=0;orthogonalLoop=1;jettySize=auto;html=1;entryX=0.5;entryY=1;entryDx=0;entryDy=0;" parent="1" source="9zeXcT7h1Ww5CdjPzbvc-37" target="9zeXcT7h1Ww5CdjPzbvc-41" edge="1">
          <mxGeometry relative="1" as="geometry" />
        </mxCell>
        <mxCell id="9zeXcT7h1Ww5CdjPzbvc-44" style="edgeStyle=orthogonalEdgeStyle;rounded=0;orthogonalLoop=1;jettySize=auto;html=1;entryX=0.5;entryY=1;entryDx=0;entryDy=0;" parent="1" source="9zeXcT7h1Ww5CdjPzbvc-37" target="9zeXcT7h1Ww5CdjPzbvc-43" edge="1">
          <mxGeometry relative="1" as="geometry" />
        </mxCell>
        <mxCell id="ZVySOKYS1OYlLSNdd-Se-39" style="edgeStyle=orthogonalEdgeStyle;shape=connector;rounded=0;orthogonalLoop=1;jettySize=auto;html=1;entryX=0.5;entryY=1;entryDx=0;entryDy=0;labelBackgroundColor=default;strokeColor=#FF3399;fontFamily=Helvetica;fontSize=11;fontColor=default;endArrow=classic;" parent="1" source="9zeXcT7h1Ww5CdjPzbvc-37" target="ZVySOKYS1OYlLSNdd-Se-38" edge="1">
          <mxGeometry relative="1" as="geometry">
            <Array as="points">
              <mxPoint x="430" y="630" />
            </Array>
          </mxGeometry>
        </mxCell>
        <mxCell id="9zeXcT7h1Ww5CdjPzbvc-37" value="Flatten and FCN" style="rounded=1;whiteSpace=wrap;html=1;" parent="1" vertex="1">
          <mxGeometry x="370" y="640" width="120" height="30" as="geometry" />
        </mxCell>
        <mxCell id="9zeXcT7h1Ww5CdjPzbvc-46" style="edgeStyle=orthogonalEdgeStyle;rounded=0;orthogonalLoop=1;jettySize=auto;html=1;entryX=0.5;entryY=1;entryDx=0;entryDy=0;" parent="1" source="9zeXcT7h1Ww5CdjPzbvc-41" target="9zeXcT7h1Ww5CdjPzbvc-45" edge="1">
          <mxGeometry relative="1" as="geometry">
            <Array as="points">
              <mxPoint x="360" y="570" />
              <mxPoint x="429" y="570" />
            </Array>
          </mxGeometry>
        </mxCell>
        <mxCell id="9zeXcT7h1Ww5CdjPzbvc-41" value="Mean (N, Z_dim)" style="rounded=0;whiteSpace=wrap;html=1;fillColor=#fff2cc;strokeColor=#d6b656;" parent="1" vertex="1">
          <mxGeometry x="320" y="584" width="100" height="20" as="geometry" />
        </mxCell>
        <mxCell id="9zeXcT7h1Ww5CdjPzbvc-47" style="edgeStyle=orthogonalEdgeStyle;rounded=0;orthogonalLoop=1;jettySize=auto;html=1;entryX=0.5;entryY=1;entryDx=0;entryDy=0;" parent="1" source="9zeXcT7h1Ww5CdjPzbvc-43" target="9zeXcT7h1Ww5CdjPzbvc-45" edge="1">
          <mxGeometry relative="1" as="geometry">
            <Array as="points">
              <mxPoint x="500" y="570" />
              <mxPoint x="429" y="570" />
            </Array>
          </mxGeometry>
        </mxCell>
        <mxCell id="9zeXcT7h1Ww5CdjPzbvc-43" value="LogVar (N, Z_dim)" style="rounded=0;whiteSpace=wrap;html=1;fillColor=#e1d5e7;strokeColor=#9673a6;" parent="1" vertex="1">
          <mxGeometry x="440" y="584" width="100" height="20" as="geometry" />
        </mxCell>
        <mxCell id="9zeXcT7h1Ww5CdjPzbvc-49" style="edgeStyle=orthogonalEdgeStyle;rounded=0;orthogonalLoop=1;jettySize=auto;html=1;exitX=0.5;exitY=0;exitDx=0;exitDy=0;entryX=0.5;entryY=1;entryDx=0;entryDy=0;" parent="1" source="9zeXcT7h1Ww5CdjPzbvc-45" target="9zeXcT7h1Ww5CdjPzbvc-48" edge="1">
          <mxGeometry relative="1" as="geometry" />
        </mxCell>
        <mxCell id="9zeXcT7h1Ww5CdjPzbvc-45" value="Reparametrize" style="rounded=1;whiteSpace=wrap;html=1;" parent="1" vertex="1">
          <mxGeometry x="369" y="520" width="120" height="30" as="geometry" />
        </mxCell>
        <mxCell id="9zeXcT7h1Ww5CdjPzbvc-51" style="edgeStyle=orthogonalEdgeStyle;rounded=0;orthogonalLoop=1;jettySize=auto;html=1;" parent="1" source="9zeXcT7h1Ww5CdjPzbvc-48" target="9zeXcT7h1Ww5CdjPzbvc-50" edge="1">
          <mxGeometry relative="1" as="geometry" />
        </mxCell>
        <mxCell id="9zeXcT7h1Ww5CdjPzbvc-48" value="Z" style="rounded=0;whiteSpace=wrap;html=1;fillColor=#60a917;strokeColor=#2D7600;fontColor=#ffffff;" parent="1" vertex="1">
          <mxGeometry x="369" y="330" width="120" height="30" as="geometry" />
        </mxCell>
        <mxCell id="9zeXcT7h1Ww5CdjPzbvc-73" style="edgeStyle=orthogonalEdgeStyle;rounded=0;orthogonalLoop=1;jettySize=auto;html=1;exitX=0.5;exitY=0;exitDx=0;exitDy=0;entryX=0.5;entryY=0;entryDx=0;entryDy=0;" parent="1" source="9zeXcT7h1Ww5CdjPzbvc-50" target="9zeXcT7h1Ww5CdjPzbvc-71" edge="1">
          <mxGeometry relative="1" as="geometry" />
        </mxCell>
        <mxCell id="9zeXcT7h1Ww5CdjPzbvc-50" value="FCN and Reshape" style="rounded=1;whiteSpace=wrap;html=1;" parent="1" vertex="1">
          <mxGeometry x="369" y="270" width="120" height="30" as="geometry" />
        </mxCell>
        <mxCell id="9zeXcT7h1Ww5CdjPzbvc-60" style="edgeStyle=orthogonalEdgeStyle;rounded=0;orthogonalLoop=1;jettySize=auto;html=1;" parent="1" source="9zeXcT7h1Ww5CdjPzbvc-52" target="9zeXcT7h1Ww5CdjPzbvc-55" edge="1">
          <mxGeometry relative="1" as="geometry">
            <Array as="points">
              <mxPoint x="760" y="430" />
              <mxPoint x="560" y="430" />
            </Array>
          </mxGeometry>
        </mxCell>
        <mxCell id="ZVySOKYS1OYlLSNdd-Se-30" style="edgeStyle=orthogonalEdgeStyle;shape=connector;rounded=0;orthogonalLoop=1;jettySize=auto;html=1;entryX=0.5;entryY=1;entryDx=0;entryDy=0;labelBackgroundColor=default;strokeColor=#FF3399;fontFamily=Helvetica;fontSize=11;fontColor=default;endArrow=classic;" parent="1" source="9zeXcT7h1Ww5CdjPzbvc-52" target="ZVySOKYS1OYlLSNdd-Se-15" edge="1">
          <mxGeometry relative="1" as="geometry">
            <Array as="points">
              <mxPoint x="760" y="440" />
              <mxPoint x="870" y="440" />
            </Array>
          </mxGeometry>
        </mxCell>
        <mxCell id="9zeXcT7h1Ww5CdjPzbvc-52" value="Flatten and FCN" style="rounded=1;whiteSpace=wrap;html=1;" parent="1" vertex="1">
          <mxGeometry x="700" y="450" width="120" height="30" as="geometry" />
        </mxCell>
        <mxCell id="ZVySOKYS1OYlLSNdd-Se-12" style="edgeStyle=orthogonalEdgeStyle;rounded=0;orthogonalLoop=1;jettySize=auto;html=1;entryX=0.5;entryY=1;entryDx=0;entryDy=0;" parent="1" source="9zeXcT7h1Ww5CdjPzbvc-55" target="9zeXcT7h1Ww5CdjPzbvc-59" edge="1">
          <mxGeometry relative="1" as="geometry" />
        </mxCell>
        <mxCell id="9zeXcT7h1Ww5CdjPzbvc-55" value="Softmax" style="rounded=1;whiteSpace=wrap;html=1;" parent="1" vertex="1">
          <mxGeometry x="520" y="380" width="80" height="20" as="geometry" />
        </mxCell>
        <mxCell id="9zeXcT7h1Ww5CdjPzbvc-69" value="Comp&lt;br style=&quot;font-size: 10px;&quot;&gt;lexity" style="rounded=0;whiteSpace=wrap;html=1;fontSize=10;fillColor=#d80073;fontColor=#ffffff;strokeColor=#A50040;" parent="1" vertex="1">
          <mxGeometry x="339" y="330" width="30" height="30" as="geometry" />
        </mxCell>
        <mxCell id="9zeXcT7h1Ww5CdjPzbvc-74" value="" style="group" parent="1" vertex="1" connectable="0">
          <mxGeometry x="320" y="200" width="220" height="50" as="geometry" />
        </mxCell>
        <mxCell id="9zeXcT7h1Ww5CdjPzbvc-71" value="" style="shape=trapezoid;perimeter=trapezoidPerimeter;whiteSpace=wrap;html=1;fixedSize=1;rotation=-180;" parent="9zeXcT7h1Ww5CdjPzbvc-74" vertex="1">
          <mxGeometry width="220" height="50" as="geometry" />
        </mxCell>
        <mxCell id="9zeXcT7h1Ww5CdjPzbvc-72" value="Decoder" style="text;html=1;strokeColor=none;fillColor=none;align=center;verticalAlign=middle;whiteSpace=wrap;rounded=0;" parent="9zeXcT7h1Ww5CdjPzbvc-74" vertex="1">
          <mxGeometry x="80" y="10" width="60" height="30" as="geometry" />
        </mxCell>
        <mxCell id="9zeXcT7h1Ww5CdjPzbvc-86" value="" style="group" parent="1" vertex="1" connectable="0">
          <mxGeometry x="230" y="300" width="683.04" height="60" as="geometry" />
        </mxCell>
        <mxCell id="9zeXcT7h1Ww5CdjPzbvc-85" value="O_ (N, 32, 9)" style="rounded=0;whiteSpace=wrap;html=1;fillColor=#f5f5f5;fontColor=#333333;strokeColor=#666666;container=0;" parent="9zeXcT7h1Ww5CdjPzbvc-86" vertex="1">
          <mxGeometry x="280" y="-163" width="120" height="20" as="geometry" />
        </mxCell>
        <mxCell id="9zeXcT7h1Ww5CdjPzbvc-84" value="V_ (N, 32, 9)" style="rounded=0;whiteSpace=wrap;html=1;fillColor=#dae8fc;strokeColor=#6c8ebf;container=0;" parent="9zeXcT7h1Ww5CdjPzbvc-86" vertex="1">
          <mxGeometry x="140" y="-163" width="120" height="20" as="geometry" />
        </mxCell>
        <mxCell id="9zeXcT7h1Ww5CdjPzbvc-88" style="edgeStyle=orthogonalEdgeStyle;rounded=0;orthogonalLoop=1;jettySize=auto;html=1;entryX=0.5;entryY=1;entryDx=0;entryDy=0;" parent="1" source="9zeXcT7h1Ww5CdjPzbvc-71" target="9zeXcT7h1Ww5CdjPzbvc-84" edge="1">
          <mxGeometry relative="1" as="geometry" />
        </mxCell>
        <mxCell id="9zeXcT7h1Ww5CdjPzbvc-89" style="edgeStyle=orthogonalEdgeStyle;rounded=0;orthogonalLoop=1;jettySize=auto;html=1;entryX=0.5;entryY=1;entryDx=0;entryDy=0;" parent="1" source="9zeXcT7h1Ww5CdjPzbvc-71" target="9zeXcT7h1Ww5CdjPzbvc-85" edge="1">
          <mxGeometry relative="1" as="geometry">
            <Array as="points">
              <mxPoint x="430" y="190" />
              <mxPoint x="570" y="190" />
            </Array>
          </mxGeometry>
        </mxCell>
        <mxCell id="9zeXcT7h1Ww5CdjPzbvc-90" style="edgeStyle=orthogonalEdgeStyle;rounded=0;orthogonalLoop=1;jettySize=auto;html=1;entryX=0.5;entryY=1;entryDx=0;entryDy=0;" parent="1" source="9zeXcT7h1Ww5CdjPzbvc-71" target="DQ1VLmd9Tk6c67iTof-k-58" edge="1">
          <mxGeometry relative="1" as="geometry">
            <Array as="points">
              <mxPoint x="430" y="190" />
              <mxPoint x="290" y="190" />
            </Array>
            <mxPoint x="290" y="170" as="targetPoint" />
          </mxGeometry>
        </mxCell>
        <mxCell id="rTMyLlt5xqiZMyr0EFMd-10" style="edgeStyle=orthogonalEdgeStyle;shape=connector;rounded=0;orthogonalLoop=1;jettySize=auto;html=1;entryX=0.5;entryY=1;entryDx=0;entryDy=0;labelBackgroundColor=default;strokeColor=default;fontFamily=Helvetica;fontSize=11;fontColor=default;endArrow=classic;" edge="1" parent="1" source="9zeXcT7h1Ww5CdjPzbvc-2" target="ZVySOKYS1OYlLSNdd-Se-18">
          <mxGeometry relative="1" as="geometry" />
        </mxCell>
        <mxCell id="9zeXcT7h1Ww5CdjPzbvc-2" value="H (N, 32, 1)" style="rounded=0;whiteSpace=wrap;html=1;fillColor=#d5e8d4;strokeColor=#82b366;" parent="1" vertex="1">
          <mxGeometry x="210" y="1210" width="120" height="20" as="geometry" />
        </mxCell>
        <mxCell id="ZVySOKYS1OYlLSNdd-Se-2" value="sigmoid" style="rounded=1;whiteSpace=wrap;html=1;" parent="1" vertex="1">
          <mxGeometry x="250" y="60" width="80" height="30" as="geometry" />
        </mxCell>
        <mxCell id="ZVySOKYS1OYlLSNdd-Se-3" style="edgeStyle=orthogonalEdgeStyle;rounded=0;orthogonalLoop=1;jettySize=auto;html=1;entryX=0.5;entryY=1;entryDx=0;entryDy=0;" parent="1" source="DQ1VLmd9Tk6c67iTof-k-58" edge="1">
          <mxGeometry relative="1" as="geometry">
            <mxPoint x="290" y="150" as="sourcePoint" />
            <mxPoint x="290" y="90" as="targetPoint" />
          </mxGeometry>
        </mxCell>
        <mxCell id="ZVySOKYS1OYlLSNdd-Se-4" value="sigmoid" style="rounded=1;whiteSpace=wrap;html=1;" parent="1" vertex="1">
          <mxGeometry x="390" y="60" width="80" height="30" as="geometry" />
        </mxCell>
        <mxCell id="ZVySOKYS1OYlLSNdd-Se-5" value="sigmoid" style="rounded=1;whiteSpace=wrap;html=1;" parent="1" vertex="1">
          <mxGeometry x="530" y="60" width="80" height="30" as="geometry" />
        </mxCell>
        <mxCell id="ZVySOKYS1OYlLSNdd-Se-6" style="edgeStyle=orthogonalEdgeStyle;rounded=0;orthogonalLoop=1;jettySize=auto;html=1;" parent="1" source="9zeXcT7h1Ww5CdjPzbvc-84" target="ZVySOKYS1OYlLSNdd-Se-4" edge="1">
          <mxGeometry relative="1" as="geometry" />
        </mxCell>
        <mxCell id="ZVySOKYS1OYlLSNdd-Se-7" style="edgeStyle=orthogonalEdgeStyle;rounded=0;orthogonalLoop=1;jettySize=auto;html=1;entryX=0.5;entryY=1;entryDx=0;entryDy=0;" parent="1" source="9zeXcT7h1Ww5CdjPzbvc-85" target="ZVySOKYS1OYlLSNdd-Se-5" edge="1">
          <mxGeometry relative="1" as="geometry" />
        </mxCell>
        <mxCell id="ZVySOKYS1OYlLSNdd-Se-10" value="" style="group" parent="1" vertex="1" connectable="0">
          <mxGeometry x="485" y="330" width="120" height="30" as="geometry" />
        </mxCell>
        <mxCell id="9zeXcT7h1Ww5CdjPzbvc-56" value="Rock" style="rounded=0;whiteSpace=wrap;html=1;fillColor=#6a00ff;fontColor=#ffffff;strokeColor=#3700CC;" parent="ZVySOKYS1OYlLSNdd-Se-10" vertex="1">
          <mxGeometry width="30" height="30" as="geometry" />
        </mxCell>
        <mxCell id="9zeXcT7h1Ww5CdjPzbvc-57" value="Funk" style="rounded=0;whiteSpace=wrap;html=1;fillColor=#6a00ff;fontColor=#ffffff;strokeColor=#3700CC;" parent="ZVySOKYS1OYlLSNdd-Se-10" vertex="1">
          <mxGeometry x="30" width="30" height="30" as="geometry" />
        </mxCell>
        <mxCell id="9zeXcT7h1Ww5CdjPzbvc-58" value="..." style="rounded=0;whiteSpace=wrap;html=1;fillColor=#6a00ff;fontColor=#ffffff;strokeColor=#3700CC;" parent="ZVySOKYS1OYlLSNdd-Se-10" vertex="1">
          <mxGeometry x="90" width="30" height="30" as="geometry" />
        </mxCell>
        <mxCell id="9zeXcT7h1Ww5CdjPzbvc-59" value="" style="rounded=0;whiteSpace=wrap;html=1;fillColor=#6a00ff;fontColor=#ffffff;strokeColor=#3700CC;" parent="ZVySOKYS1OYlLSNdd-Se-10" vertex="1">
          <mxGeometry x="60" width="30" height="30" as="geometry" />
        </mxCell>
        <mxCell id="ZVySOKYS1OYlLSNdd-Se-15" value="CrossEntropy&lt;br&gt;" style="rounded=1;whiteSpace=wrap;html=1;fillColor=#f8cecc;strokeColor=#b85450;" parent="1" vertex="1">
          <mxGeometry x="830" y="370" width="80" height="20" as="geometry" />
        </mxCell>
        <mxCell id="ZVySOKYS1OYlLSNdd-Se-25" style="edgeStyle=orthogonalEdgeStyle;rounded=0;orthogonalLoop=1;jettySize=auto;html=1;entryX=0.5;entryY=1;entryDx=0;entryDy=0;" parent="1" source="ZVySOKYS1OYlLSNdd-Se-18" target="ZVySOKYS1OYlLSNdd-Se-24" edge="1">
          <mxGeometry relative="1" as="geometry">
            <Array as="points">
              <mxPoint x="220" y="430" />
              <mxPoint x="299" y="430" />
            </Array>
          </mxGeometry>
        </mxCell>
        <mxCell id="ZVySOKYS1OYlLSNdd-Se-29" style="edgeStyle=orthogonalEdgeStyle;rounded=0;orthogonalLoop=1;jettySize=auto;html=1;entryX=0.5;entryY=1;entryDx=0;entryDy=0;strokeColor=#FF3399;" parent="1" source="ZVySOKYS1OYlLSNdd-Se-18" target="ZVySOKYS1OYlLSNdd-Se-28" edge="1">
          <mxGeometry relative="1" as="geometry">
            <Array as="points">
              <mxPoint x="220" y="430" />
              <mxPoint x="80" y="430" />
              <mxPoint x="80" y="380" />
            </Array>
          </mxGeometry>
        </mxCell>
        <mxCell id="ZVySOKYS1OYlLSNdd-Se-18" value="Flatten and FCN" style="rounded=1;whiteSpace=wrap;html=1;" parent="1" vertex="1">
          <mxGeometry x="160" y="450" width="120" height="30" as="geometry" />
        </mxCell>
        <mxCell id="DQ1VLmd9Tk6c67iTof-k-50" style="edgeStyle=orthogonalEdgeStyle;rounded=0;orthogonalLoop=1;jettySize=auto;html=1;entryX=0.5;entryY=1;entryDx=0;entryDy=0;" parent="1" source="ZVySOKYS1OYlLSNdd-Se-24" target="9zeXcT7h1Ww5CdjPzbvc-69" edge="1">
          <mxGeometry relative="1" as="geometry">
            <Array as="points">
              <mxPoint x="299" y="370" />
              <mxPoint x="354" y="370" />
            </Array>
          </mxGeometry>
        </mxCell>
        <mxCell id="ZVySOKYS1OYlLSNdd-Se-24" value="Sigmoid" style="rounded=1;whiteSpace=wrap;html=1;" parent="1" vertex="1">
          <mxGeometry x="259" y="380" width="80" height="20" as="geometry" />
        </mxCell>
        <mxCell id="ZVySOKYS1OYlLSNdd-Se-28" value="BCEWithLogitLoss" style="rounded=1;whiteSpace=wrap;html=1;fillColor=#f8cecc;strokeColor=#b85450;" parent="1" vertex="1">
          <mxGeometry x="10" y="360" width="120" height="20" as="geometry" />
        </mxCell>
        <mxCell id="ZVySOKYS1OYlLSNdd-Se-31" value="BCEWithLogitLoss" style="rounded=1;whiteSpace=wrap;html=1;fillColor=#f8cecc;strokeColor=#b85450;" parent="1" vertex="1">
          <mxGeometry x="369" y="-20" width="120" height="20" as="geometry" />
        </mxCell>
        <mxCell id="ZVySOKYS1OYlLSNdd-Se-35" style="edgeStyle=orthogonalEdgeStyle;shape=connector;rounded=0;orthogonalLoop=1;jettySize=auto;html=1;entryX=0.5;entryY=1;entryDx=0;entryDy=0;labelBackgroundColor=default;strokeColor=#FF3399;fontFamily=Helvetica;fontSize=11;fontColor=default;endArrow=classic;exitX=0.5;exitY=0;exitDx=0;exitDy=0;" parent="1" source="9zeXcT7h1Ww5CdjPzbvc-84" target="ZVySOKYS1OYlLSNdd-Se-31" edge="1">
          <mxGeometry relative="1" as="geometry">
            <mxPoint x="430" y="130" as="sourcePoint" />
            <Array as="points">
              <mxPoint x="430" y="130" />
              <mxPoint x="380" y="130" />
              <mxPoint x="380" y="20" />
              <mxPoint x="429" y="20" />
            </Array>
          </mxGeometry>
        </mxCell>
        <mxCell id="ZVySOKYS1OYlLSNdd-Se-37" style="edgeStyle=orthogonalEdgeStyle;shape=connector;rounded=0;orthogonalLoop=1;jettySize=auto;html=1;entryX=0.75;entryY=1;entryDx=0;entryDy=0;labelBackgroundColor=default;strokeColor=#FF3399;fontFamily=Helvetica;fontSize=11;fontColor=default;endArrow=classic;" parent="1" source="9zeXcT7h1Ww5CdjPzbvc-85" target="ZVySOKYS1OYlLSNdd-Se-31" edge="1">
          <mxGeometry relative="1" as="geometry">
            <Array as="points">
              <mxPoint x="570" y="120" />
              <mxPoint x="490" y="120" />
              <mxPoint x="490" y="10" />
              <mxPoint x="459" y="10" />
            </Array>
          </mxGeometry>
        </mxCell>
        <mxCell id="ZVySOKYS1OYlLSNdd-Se-38" value="KLDiv" style="rounded=1;whiteSpace=wrap;html=1;fillColor=#f8cecc;strokeColor=#b85450;" parent="1" vertex="1">
          <mxGeometry x="565" y="584" width="80" height="20" as="geometry" />
        </mxCell>
        <mxCell id="DQ1VLmd9Tk6c67iTof-k-4" style="edgeStyle=orthogonalEdgeStyle;rounded=0;orthogonalLoop=1;jettySize=auto;html=1;" parent="1" source="DQ1VLmd9Tk6c67iTof-k-1" target="9zeXcT7h1Ww5CdjPzbvc-1" edge="1">
          <mxGeometry relative="1" as="geometry" />
        </mxCell>
        <mxCell id="DQ1VLmd9Tk6c67iTof-k-1" value="PositionalEncoding" style="rounded=1;whiteSpace=wrap;html=1;" parent="1" vertex="1">
          <mxGeometry x="370" y="907" width="120" height="30" as="geometry" />
        </mxCell>
        <mxCell id="rTMyLlt5xqiZMyr0EFMd-5" style="edgeStyle=orthogonalEdgeStyle;shape=connector;rounded=0;orthogonalLoop=1;jettySize=auto;html=1;labelBackgroundColor=default;strokeColor=#FF3399;fontFamily=Helvetica;fontSize=11;fontColor=default;endArrow=classic;entryX=0.5;entryY=1;entryDx=0;entryDy=0;exitX=0.5;exitY=0;exitDx=0;exitDy=0;" edge="1" parent="1" source="DQ1VLmd9Tk6c67iTof-k-58" target="rTMyLlt5xqiZMyr0EFMd-3">
          <mxGeometry relative="1" as="geometry">
            <Array as="points">
              <mxPoint x="290" y="110" />
              <mxPoint x="240" y="110" />
              <mxPoint x="240" y="20" />
              <mxPoint x="290" y="20" />
            </Array>
          </mxGeometry>
        </mxCell>
        <mxCell id="DQ1VLmd9Tk6c67iTof-k-58" value="H_ (N, 32, 9)" style="rounded=0;whiteSpace=wrap;html=1;fillColor=#d5e8d4;strokeColor=#82b366;container=0;" parent="1" vertex="1">
          <mxGeometry x="230" y="137" width="120" height="20" as="geometry" />
        </mxCell>
        <mxCell id="rTMyLlt5xqiZMyr0EFMd-3" value="FocalLoss" style="rounded=1;whiteSpace=wrap;html=1;fillColor=#f8cecc;strokeColor=#b85450;" vertex="1" parent="1">
          <mxGeometry x="230" y="-20" width="120" height="20" as="geometry" />
        </mxCell>
      </root>
    </mxGraphModel>
  </diagram>
</mxfile>
